<svg width="17" height="16" viewBox="0 0 17 16" fill="none" xmlns="http://www.w3.org/2000/svg">
<rect width="17" height="16" fill="black"/>
<g id="main" clip-path="url(#clip0_0_1)">
<rect width="1440" height="2998" transform="translate(-1161 -715)" fill="white"/>
<g id="Frame 123">
<g id="Frame 116">
<g id="Frame 113">
<g id="Group 958">
<rect id="Rectangle 696" x="-657.5" y="-14.5" width="692" height="44" rx="1.5" stroke="#F44040"/>
<g id="ic:round-remove-red-eye">
<path id="Vector" d="M8.50016 3C4.9585 3 1.93391 5.07333 0.708496 8C1.93391 10.9267 4.9585 13 8.50016 13C12.0418 13 15.0664 10.9267 16.2918 8C15.0664 5.07333 12.0418 3 8.50016 3ZM8.50016 11.3333C6.54516 11.3333 4.9585 9.84 4.9585 8C4.9585 6.16 6.54516 4.66667 8.50016 4.66667C10.4552 4.66667 12.0418 6.16 12.0418 8C12.0418 9.84 10.4552 11.3333 8.50016 11.3333ZM8.50016 6C7.32433 6 6.37516 6.89333 6.37516 8C6.37516 9.10667 7.32433 10 8.50016 10C9.676 10 10.6252 9.10667 10.6252 8C10.6252 6.89333 9.676 6 8.50016 6Z" fill="#AAAAAA"/>
</g>
</g>
</g>
</g>
</g>
</g>
<defs>
<clipPath id="clip0_0_1">
<rect width="1440" height="2998" fill="#AB7C94" transform="translate(-1161 -715)"/>
</clipPath>
</defs>
</svg>
