<?xml version="1.0" encoding="utf-8"?>
<!-- Generator: Adobe Illustrator 24.2.3, SVG Export Plug-In . SVG Version: 6.00 Build 0)  -->
<svg version="1.1" id="레이어_1" xmlns="http://www.w3.org/2000/svg" xmlns:xlink="http://www.w3.org/1999/xlink" x="0px"
	 y="0px" viewBox="0 0 760.1 127.2" style="enable-background:new 0 0 760.1 127.2;" xml:space="preserve">
<style type="text/css">
	.st0{fill:#555660;}
	.st1{fill:#1772FF;}
	.st2{fill:#FFFFFF;}
</style>
<g>
	<g>
		<polygon class="st0" points="0,125.2 0,3.6 17.3,3.6 60.8,80.3 104.5,3.6 121.7,3.6 121.7,125.1 101.4,125.1 101.4,46 67.8,105.5 
			53.8,105.5 20.2,46 20.2,125.2 		"/>
		<path class="st0" d="M366.6,125.1V76.5c0-15.2-6.8-23.6-19.2-23.6c-12.4,0-22.6,12-22.6,26.7v45.5h-19.9V0h19.9v45
			c5.5-5.4,14.2-10,25.8-10c21.5,0,35.9,15.7,35.9,39v51.2H366.6z"/>
		<path class="st0" d="M443.1,127.2c-25.6,0-44.2-19.5-44.2-46.2c0-26.7,18.6-46.1,44.2-46.1c25.5,0,44.1,19.4,44.1,46.1
			c0.1,2.1-0.1,4.3-0.3,6.5l-0.3,2.2h-67.4c2.4,12.1,11.8,20,23.9,20c9.7,0,18.2-4.3,21.1-10.6l0.7-1.5H485l-1,3.2
			C479,116.6,462.6,127.2,443.1,127.2L443.1,127.2z M467.1,72.5c-2.5-12.2-11.7-20-24-20c-12.4,0-21.5,7.7-23.9,20H467.1z"/>
		<path class="st0" d="M563,125.1V76.5c0-15.2-6.8-23.6-19.2-23.6c-12.4,0-22.6,12-22.6,26.7v45.5h-19.9V37h19.9v8
			c5.5-5.4,14.2-10,25.8-10c21.5,0,35.9,15.7,35.9,39v51.2H563z"/>
		<path class="st0" d="M180.8,123.5c-11.7,0-22.7-4.6-30.9-12.9c-8.2-8.3-12.8-19.3-12.7-31c0.1-24.1,19.7-43.6,43.8-43.6
			c24.2,0,43.8,19.7,43.9,43.7v43.8h-19.9v-7c-7.1,4.6-15.4,7.1-23.9,7.1H180.8z M181,55.8c-6.4,0-12.4,2.5-16.8,7
			c-4.5,4.5-7,10.5-6.9,16.9c0,13.1,10.7,23.8,23.8,23.8c13.2,0,23.9-10.7,23.9-23.9C204.8,66.5,194.1,55.8,181,55.8l0.1-2.5
			L181,55.8z"/>
		<path class="st0" d="M284.7,124.1c-24.1,0-43.8-19.6-43.8-43.8L241,0h19.9v30h26.3v18.2h-26.3v32.2c0,13.1,10.7,23.8,23.8,23.8
			h2.5v19.9H284.7z"/>
		<path class="st1" d="M202.7,2.5h18c6.4,0,11.7,5.2,11.7,11.7v18.1l0,0h-18c-6.4,0-11.7-5.2-11.7-11.7V2.5L202.7,2.5z"/>
	</g>
	<g>
		<path class="st1" d="M754.5,125.9H598.4V67.4c0-3.1,2.5-5.6,5.6-5.6h156.1v58.4C760.1,123.3,757.6,125.9,754.5,125.9z"/>
	</g>
	<g>
		<path class="st2" d="M626.3,83.8h-10.8v-6.9h29.8v6.9h-10.8V113h-8.2V83.8z"/>
		<path class="st2" d="M652.2,76.9h23.9v6.9h-15.8V91h13.4v6.9h-13.4v8.3h16.3v6.9h-24.5V76.9z"/>
		<path class="st2" d="M683.1,108.5l4.7-5.6c2.7,2.2,6.1,3.8,9.6,3.8c3.5,0,5.1-1.3,5.1-3.1c0-2.6-2.1-3.2-5.6-4.7l-4.7-2
			c-4-1.5-7.7-4.6-7.7-9.8c0-6,5.4-10.8,13.2-10.8c4.3,0,8.7,1.6,12,4.7l-4.1,5.2c-2.5-1.8-4.8-2.8-8.3-2.8c-2.7,0-4.5,1.1-4.5,3.2
			c0,2.2,2.4,3,5.9,4.3l4.4,1.9c4.7,1.8,7.7,4.7,7.7,9.8c0,6-5,11.2-14,11.2C692,113.7,686.9,111.9,683.1,108.5z"/>
		<path class="st2" d="M726.1,83.8h-10.8v-6.9h29.8v6.9h-10.8V113h-8.2V83.8z"/>
	</g>
</g>
</svg>
